<mxfile host="app.diagrams.net" agent="Mozilla/5.0 (Windows NT 10.0; Win64; x64; rv:136.0) Gecko/20100101 Firefox/136.0" version="26.0.16">
  <diagram name="Page-1" id="lc4TZR0ulsQA_QCjUhmr">
    <mxGraphModel dx="1050" dy="566" grid="1" gridSize="10" guides="1" tooltips="1" connect="1" arrows="1" fold="1" page="1" pageScale="1" pageWidth="850" pageHeight="1100" math="0" shadow="0">
      <root>
        <mxCell id="0" />
        <mxCell id="1" parent="0" />
        <mxCell id="qnmXf5epQ5ePsx4cK6Up-1" value="User" style="shape=umlActor;verticalLabelPosition=bottom;verticalAlign=top;html=1;outlineConnect=0;" parent="1" vertex="1">
          <mxGeometry x="30" y="490" width="30" height="60" as="geometry" />
        </mxCell>
        <mxCell id="qnmXf5epQ5ePsx4cK6Up-2" value="Admin" style="shape=umlActor;verticalLabelPosition=bottom;verticalAlign=top;html=1;outlineConnect=0;" parent="1" vertex="1">
          <mxGeometry x="150" y="410" width="30" height="60" as="geometry" />
        </mxCell>
        <mxCell id="qnmXf5epQ5ePsx4cK6Up-3" value="&lt;div&gt;Patient&lt;/div&gt;" style="shape=umlActor;verticalLabelPosition=bottom;verticalAlign=top;html=1;outlineConnect=0;" parent="1" vertex="1">
          <mxGeometry x="150" y="540" width="30" height="60" as="geometry" />
        </mxCell>
        <mxCell id="qnmXf5epQ5ePsx4cK6Up-10" value="Extends" style="endArrow=block;endSize=16;endFill=0;html=1;rounded=0;" parent="1" source="qnmXf5epQ5ePsx4cK6Up-3" target="qnmXf5epQ5ePsx4cK6Up-1" edge="1">
          <mxGeometry width="160" relative="1" as="geometry">
            <mxPoint x="250" y="560" as="sourcePoint" />
            <mxPoint x="410" y="560" as="targetPoint" />
          </mxGeometry>
        </mxCell>
        <mxCell id="qnmXf5epQ5ePsx4cK6Up-11" value="Extends" style="endArrow=block;endSize=16;endFill=0;html=1;rounded=0;" parent="1" source="qnmXf5epQ5ePsx4cK6Up-2" target="qnmXf5epQ5ePsx4cK6Up-1" edge="1">
          <mxGeometry width="160" relative="1" as="geometry">
            <mxPoint x="160" y="574" as="sourcePoint" />
            <mxPoint x="70" y="536" as="targetPoint" />
          </mxGeometry>
        </mxCell>
        <mxCell id="qnmXf5epQ5ePsx4cK6Up-12" value="" style="rounded=1;whiteSpace=wrap;html=1;" parent="1" vertex="1">
          <mxGeometry x="232.5" y="300" width="210" height="390" as="geometry" />
        </mxCell>
        <mxCell id="qnmXf5epQ5ePsx4cK6Up-13" value="CRUD of Assets/Resources" style="ellipse;whiteSpace=wrap;html=1;" parent="1" vertex="1">
          <mxGeometry x="272.5" y="340" width="125" height="40" as="geometry" />
        </mxCell>
        <mxCell id="qnmXf5epQ5ePsx4cK6Up-16" value="" style="endArrow=none;html=1;rounded=0;entryX=0;entryY=0.5;entryDx=0;entryDy=0;" parent="1" source="qnmXf5epQ5ePsx4cK6Up-2" target="qnmXf5epQ5ePsx4cK6Up-13" edge="1">
          <mxGeometry width="50" height="50" relative="1" as="geometry">
            <mxPoint x="280" y="570" as="sourcePoint" />
            <mxPoint x="180" y="390" as="targetPoint" />
          </mxGeometry>
        </mxCell>
        <mxCell id="qnmXf5epQ5ePsx4cK6Up-20" value="Doctor Salary Visualization" style="ellipse;whiteSpace=wrap;html=1;" parent="1" vertex="1">
          <mxGeometry x="275" y="460" width="120" height="40" as="geometry" />
        </mxCell>
        <mxCell id="qnmXf5epQ5ePsx4cK6Up-21" value="" style="endArrow=none;html=1;rounded=0;entryX=0;entryY=0.5;entryDx=0;entryDy=0;" parent="1" target="qnmXf5epQ5ePsx4cK6Up-20" edge="1">
          <mxGeometry width="50" height="50" relative="1" as="geometry">
            <mxPoint x="180" y="430" as="sourcePoint" />
            <mxPoint x="330" y="520" as="targetPoint" />
          </mxGeometry>
        </mxCell>
        <mxCell id="qnmXf5epQ5ePsx4cK6Up-22" value="Consultation Review" style="ellipse;whiteSpace=wrap;html=1;" parent="1" vertex="1">
          <mxGeometry x="272.5" y="570" width="130" height="40" as="geometry" />
        </mxCell>
        <mxCell id="qnmXf5epQ5ePsx4cK6Up-23" value="" style="endArrow=none;html=1;rounded=0;exitX=1;exitY=0.3333333333333333;exitDx=0;exitDy=0;exitPerimeter=0;entryX=0;entryY=0.5;entryDx=0;entryDy=0;" parent="1" source="qnmXf5epQ5ePsx4cK6Up-3" target="qnmXf5epQ5ePsx4cK6Up-22" edge="1">
          <mxGeometry width="50" height="50" relative="1" as="geometry">
            <mxPoint x="280" y="570" as="sourcePoint" />
            <mxPoint x="330" y="520" as="targetPoint" />
          </mxGeometry>
        </mxCell>
        <mxCell id="qnmXf5epQ5ePsx4cK6Up-24" value="System" style="text;html=1;align=center;verticalAlign=middle;whiteSpace=wrap;rounded=0;" parent="1" vertex="1">
          <mxGeometry x="307.5" y="300" width="60" height="30" as="geometry" />
        </mxCell>
        <mxCell id="qnmXf5epQ5ePsx4cK6Up-26" value="Database Service" style="shape=umlActor;verticalLabelPosition=bottom;verticalAlign=top;html=1;outlineConnect=0;" parent="1" vertex="1">
          <mxGeometry x="590" y="330" width="30" height="60" as="geometry" />
        </mxCell>
        <mxCell id="qnmXf5epQ5ePsx4cK6Up-27" value="" style="endArrow=none;html=1;rounded=0;exitX=1;exitY=0.5;exitDx=0;exitDy=0;entryX=0;entryY=0.3333333333333333;entryDx=0;entryDy=0;entryPerimeter=0;" parent="1" source="qnmXf5epQ5ePsx4cK6Up-13" target="qnmXf5epQ5ePsx4cK6Up-26" edge="1">
          <mxGeometry width="50" height="50" relative="1" as="geometry">
            <mxPoint x="280" y="530" as="sourcePoint" />
            <mxPoint x="330" y="480" as="targetPoint" />
          </mxGeometry>
        </mxCell>
        <mxCell id="qnmXf5epQ5ePsx4cK6Up-29" value="" style="endArrow=none;html=1;rounded=0;entryX=1;entryY=0.5;entryDx=0;entryDy=0;" parent="1" target="qnmXf5epQ5ePsx4cK6Up-20" edge="1">
          <mxGeometry width="50" height="50" relative="1" as="geometry">
            <mxPoint x="590" y="350" as="sourcePoint" />
            <mxPoint x="330" y="480" as="targetPoint" />
          </mxGeometry>
        </mxCell>
        <mxCell id="qnmXf5epQ5ePsx4cK6Up-30" value="" style="endArrow=none;html=1;rounded=0;exitX=1;exitY=0.5;exitDx=0;exitDy=0;" parent="1" source="qnmXf5epQ5ePsx4cK6Up-22" edge="1">
          <mxGeometry width="50" height="50" relative="1" as="geometry">
            <mxPoint x="280" y="530" as="sourcePoint" />
            <mxPoint x="590" y="350" as="targetPoint" />
          </mxGeometry>
        </mxCell>
      </root>
    </mxGraphModel>
  </diagram>
</mxfile>
